# xmcd
#
# Track frame offsets: 
#        150
#        32521
#        62873
#        87011
#        111642
#        139053
#        174910
#        204178
#        229096
#
# Disc length: 3485 seconds
#
# Revision: 2
# Processed by: cddbd v1.5.2PL0 Copyright (c) Steve Scherf et al.
# Submitted via: ExactAudioCopy v0.99pb4
#
DISCID=710d9b09
DTITLE=David Hazeltine - Modern Standards
DYEAR=2004
DGENRE=Jazz
TTITLE0=Witchcraft
TTITLE1=A House Is Not a Home
TTITLE2=Yesterday
TTITLE3=Who Can I Turn To
TTITLE4=How Deep Is Your Love
TTITLE5=Moment To Moment
TTITLE6=A Time For Love
TTITLE7=Somewhere
TTITLE8=For the Love of You
EXTD=YEAR: 2004
EXTT0=
EXTT1=
EXTT2=
EXTT3=
EXTT4=
EXTT5=
EXTT6=
EXTT7=
EXTT8=
PLAYORDER=
